<?xml version="1.0" encoding="iso-8859-1"?>
<!-- Uploaded to: SVG Repo, www.svgrepo.com, Generator: SVG Repo Mixer Tools -->
<svg height="800px" width="800px" version="1.1" id="Layer_1" xmlns="http://www.w3.org/2000/svg" xmlns:xlink="http://www.w3.org/1999/xlink" 
	 viewBox="0 0 512 512" xml:space="preserve">
<g>
	<path style="fill:#FFC61B;" d="M346.945,391.223h-25.138c-7.908,0-14.322-6.413-14.322-14.322s6.413-14.322,14.322-14.322h10.816
		v-31.405H179.377v31.405h90.229c7.908,0,14.322,6.413,14.322,14.322s-6.413,14.322-14.322,14.322h-104.55
		c-7.908,0-14.322-6.413-14.322-14.322v-60.048c0-7.909,6.413-14.322,14.322-14.322h181.889c7.908,0,14.322,6.413,14.322,14.322
		v60.048C361.266,384.81,354.853,391.223,346.945,391.223z"/>
	<path style="fill:#FFC61B;" d="M361.683,269.839H150.317c-5.348,0-10.25-2.979-12.712-7.727L80.962,152.941
		c-2.379-4.584-2.105-10.094,0.716-14.419l52.516-80.524c2.644-4.053,7.157-6.498,11.996-6.498h156.845
		c7.909,0,14.322,6.413,14.322,14.322s-6.413,14.322-14.322,14.322H153.949l-43.711,67.026l48.784,94.027h193.96l48.784-94.027
		l-47.949-73.524c-4.321-6.625-2.453-15.499,4.172-19.82c6.627-4.324,15.499-2.452,19.82,4.172l52.516,80.526
		c2.821,4.327,3.095,9.835,0.716,14.419l-56.643,109.172C371.933,266.86,367.031,269.839,361.683,269.839z"/>
</g>
<polygon style="fill:#FEE187;" points="132.536,316.855 379.464,316.855 445.634,189.316 66.366,189.316 "/>
<g>
	<path style="fill:#FFC61B;" d="M379.464,331.175H132.536c-5.348,0-10.25-2.979-12.712-7.727L53.654,195.91
		c-2.303-4.44-2.124-9.759,0.473-14.034c2.598-4.274,7.238-6.884,12.239-6.884h379.269c5.001,0,9.64,2.609,12.239,6.884
		c2.597,4.274,2.776,9.594,0.473,14.034l-66.171,127.538C389.714,328.196,384.811,331.175,379.464,331.175z M141.24,302.531h229.52
		l51.309-98.895H89.931L141.24,302.531z"/>
	<path style="fill:#FFC61B;" d="M221.929,331.178c-5.176,0-10.174-2.816-12.723-7.728l-66.171-127.538
		c-3.643-7.021-0.905-15.665,6.117-19.307c7.016-3.641,15.665-0.907,19.307,6.117l66.171,127.538
		c3.643,7.021,0.905,15.665-6.117,19.307C226.406,330.659,224.151,331.178,221.929,331.178z"/>
	<path style="fill:#FFC61B;" d="M290.071,331.178c-2.223,0-4.476-0.517-6.585-1.613c-7.021-3.642-9.759-12.287-6.117-19.307
		L343.54,182.72c3.643-7.021,12.287-9.76,19.307-6.117c7.021,3.642,9.759,12.287,6.117,19.307l-66.171,127.538
		C300.247,328.361,295.247,331.178,290.071,331.178z"/>
	<path style="fill:#FFC61B;" d="M321.807,512c-7.908,0-14.322-6.413-14.322-14.322V376.901c0-7.908,6.413-14.322,14.322-14.322
		s14.322,6.413,14.322,14.322v120.777C336.129,505.588,329.717,512,321.807,512z"/>
	<path style="fill:#FFC61B;" d="M190.193,512c-7.908,0-14.322-6.413-14.322-14.322V376.901c0-7.908,6.413-14.322,14.322-14.322
		s14.322,6.413,14.322,14.322v120.777C204.515,505.588,198.101,512,190.193,512z"/>
	<path style="fill:#FFC61B;" d="M256,77.279c-7.908,0-14.322-6.413-14.322-14.322V14.322C241.678,6.413,248.092,0,256,0
		s14.322,6.413,14.322,14.322v48.635C270.322,70.865,263.908,77.279,256,77.279z"/>
</g>
</svg>